<?xml version="1.0" encoding="utf-8"?>
  
        <svg class="sun" viewBox="0 0 32 32" version="1.1" xmlns="http://www.w3.org/2000/svg" xmlns:xlink="http://www.w3.org/1999/xlink">
        <g id="icomoon-ignore">
        </g>
        <path d="M16 8.010c-4.417 0-7.997 3.581-7.997 7.998 0 4.415 3.58 7.996 7.997 7.996s7.997-3.58 7.997-7.996c0-4.416-3.58-7.998-7.997-7.998zM16 22.938c-3.821 0-6.931-3.109-6.931-6.93 0-3.822 3.109-6.932 6.931-6.932s6.931 3.11 6.931 6.932c0 3.821-3.109 6.93-6.931 6.93z" >
        
        </path>
        <path d="M15.471 0.006h1.066v6.405h-1.066v-6.405z" >
        
        </path>
        <path d="M15.471 25.604h1.066v6.39h-1.066v-6.39z" >
        
        </path>
        <path d="M0.006 15.467h6.397v1.066h-6.397v-1.066z" >
        
        </path>
        <path d="M25.596 15.467h6.398v1.066h-6.398v-1.066z" >
        
        </path>
        <path d="M26.936 4.28l0.754 0.754-4.458 4.458-0.754-0.754 4.458-4.458z" >
        
        </path>
        <path d="M5.072 27.653l-0.754-0.754 4.458-4.458 0.754 0.754-4.458 4.458z" >
        
        </path>
        <path d="M5.073 4.281l4.458 4.458-0.754 0.754-4.458-4.458 0.754-0.754z" >
        
        </path>
        <path d="M26.937 27.654l-4.458-4.458 0.754-0.754 4.458 4.458-0.754 0.754z" >
        
        </path>
        </svg>
      

      
        <?xml version="1.1" encoding="utf-8"?>
        <svg class="moon" viewBox="0 0 32 32" version="1.1"   xmlns="http://www.w3.org/2000/svg" xmlns:xlink="http://www.w3.org/1999/xlink">
        <g id="icomoon-ignore">
        </g>
        <path d="M9.882 5.052c-0.847 1.717-1.295 3.614-1.295 5.564 0 6.977 5.676 12.653 12.653 12.653 2.052 0 4.035-0.489 5.812-1.412-2.15 3.869-6.248 6.37-10.862 6.37-6.866 0-12.451-5.585-12.451-12.451 0-4.491 2.409-8.533 6.143-10.724zM12.79 2.707c-5.817 1.509-10.118 6.78-10.118 13.069 0 7.465 6.053 13.517 13.518 13.517 6.387 0 11.726-4.435 13.139-10.389-2.087 2.039-4.939 3.298-8.088 3.298-6.399 0-11.587-5.188-11.587-11.587 0-3.061 1.196-5.838 3.137-7.909v0z" >
        
        </path>
        </svg>